<svg width="133" height="128" viewBox="0 0 133 128" fill="none" xmlns="http://www.w3.org/2000/svg">
<path d="M6.63086 2.67773V3.92188H2.5293V5.11133H6.26172V6.28711H2.5293V7.58594C4.48438 7.5791 5.71484 7.53809 7.15039 7.28516L7.27344 8.51562C5.67383 8.78906 4.29297 8.83008 1.95508 8.84375H1.01172V2.67773H6.63086ZM10.7598 1.85742V9.39062H9.24219V6.25977H7.02734V5.00195H9.24219V1.85742H10.7598ZM6.57617 9.5957C9.21484 9.5957 10.8008 10.4297 10.8008 11.8926C10.8008 13.3555 9.21484 14.2031 6.57617 14.2031C3.95117 14.2031 2.36523 13.3555 2.37891 11.8926C2.36523 10.4297 3.95117 9.5957 6.57617 9.5957ZM6.57617 10.7715C4.85352 10.7715 3.88281 11.168 3.88281 11.8926C3.88281 12.6309 4.85352 13.0273 6.57617 13.0273C8.32617 13.0273 9.2832 12.6309 9.2832 11.8926C9.2832 11.168 8.32617 10.7715 6.57617 10.7715ZM18.7305 2.67773V3.92188H14.6289V5.11133H18.3613V6.28711H14.6289V7.58594C16.584 7.5791 17.8145 7.53809 19.25 7.28516L19.373 8.51562C17.7734 8.78906 16.3926 8.83008 14.0547 8.84375H13.1113V2.67773H18.7305ZM22.8594 1.85742V9.39062H21.3418V6.25977H19.127V5.00195H21.3418V1.85742H22.8594ZM18.6758 9.5957C21.3145 9.5957 22.9004 10.4297 22.9004 11.8926C22.9004 13.3555 21.3145 14.2031 18.6758 14.2031C16.0508 14.2031 14.4648 13.3555 14.4785 11.8926C14.4648 10.4297 16.0508 9.5957 18.6758 9.5957ZM18.6758 10.7715C16.9531 10.7715 15.9824 11.168 15.9824 11.8926C15.9824 12.6309 16.9531 13.0273 18.6758 13.0273C20.4258 13.0273 21.3828 12.6309 21.3828 11.8926C21.3828 11.168 20.4258 10.7715 18.6758 10.7715ZM34.3574 1.87109V5.75391H36.0801V7.01172H34.3574V11.0996H32.8398V1.87109H34.3574ZM31.9512 3.23828V4.45508H24.623V3.23828H27.5352V1.85742H29.0527V3.23828H31.9512ZM28.2871 4.96094C30.0645 4.96094 31.2949 5.9043 31.3086 7.32617C31.2949 8.73438 30.0645 9.66406 28.2871 9.66406C26.4961 9.66406 25.252 8.73438 25.252 7.32617C25.252 5.9043 26.4961 4.96094 28.2871 4.96094ZM28.2871 6.13672C27.3438 6.13672 26.7285 6.57422 26.7285 7.32617C26.7285 8.06445 27.3438 8.50195 28.2871 8.48828C29.2305 8.50195 29.8594 8.06445 29.8594 7.32617C29.8594 6.57422 29.2305 6.13672 28.2871 6.13672ZM34.8496 12.7402V13.9707H26.4414V10.375H27.959V12.7402H34.8496ZM50.6406 1.85742V14.2168H49.1777V7.96875H47.8105V13.5879H46.3887V2.08984H47.8105V6.72461H49.1777V1.85742H50.6406ZM42.0957 3.2793V9.80078C43.1621 9.78027 44.3311 9.69141 45.623 9.43164L45.7734 10.7578C44.1055 11.0586 42.6973 11.1406 41.3848 11.1406H40.5645V3.2793H42.0957ZM66.7188 8.2832V9.48633H55.4258V8.2832H60.3066V7.36719H56.875V2.18555H65.3652V3.36133H58.3926V4.20898H65.0645V5.33008H58.3926V6.20508H65.4609V7.36719H61.8242V8.2832H66.7188ZM61.0723 10.1699C63.793 10.1699 65.3379 10.8945 65.3516 12.1797C65.3379 13.5059 63.793 14.2031 61.0723 14.2031C58.3105 14.2031 56.7656 13.5059 56.7656 12.1797C56.7656 10.8945 58.3105 10.1699 61.0723 10.1699ZM61.0723 11.3047C59.2129 11.3047 58.2832 11.5918 58.2832 12.1797C58.2832 12.7812 59.2129 13.0684 61.0723 13.0684C62.9043 13.0684 63.8203 12.7812 63.834 12.1797C63.8203 11.5918 62.9043 11.3047 61.0723 11.3047ZM71.9824 4.08594C71.9824 5.60352 72.9668 7.02539 74.8945 7.61328L74.1699 8.80273C72.7822 8.37207 71.7979 7.49023 71.2578 6.36914C70.7109 7.66797 69.665 8.7002 68.1816 9.19922L67.416 7.99609C69.4121 7.33984 70.4512 5.74023 70.4512 4.09961V3.94922H67.8398V2.71875H74.5527V3.94922H71.9824V4.08594ZM77.3008 1.85742V4.82422H79.0234V6.06836H77.3008V9.22656H75.7832V1.85742H77.3008ZM73.2812 9.5C75.8379 9.5 77.4102 10.3613 77.4238 11.8379C77.4102 13.3281 75.8379 14.2031 73.2812 14.2031C70.6973 14.2031 69.0977 13.3281 69.0977 11.8379C69.0977 10.3613 70.6973 9.5 73.2812 9.5ZM73.2812 10.6895C71.5859 10.6895 70.6152 11.0859 70.6152 11.8379C70.6152 12.6035 71.5859 13.0137 73.2812 13.0137C74.9766 13.0137 75.9199 12.6035 75.9199 11.8379C75.9199 11.0859 74.9766 10.6895 73.2812 10.6895ZM82.0586 12.0293L80.9102 15.8574H79.6113L80.3223 12.0293H82.0586ZM11.6758 25.2832V26.4863H0.382812V25.2832H5.26367V24.3672H1.83203V19.1855H10.3223V20.3613H3.34961V21.209H10.0215V22.3301H3.34961V23.2051H10.418V24.3672H6.78125V25.2832H11.6758ZM6.0293 27.1699C8.75 27.1699 10.2949 27.8945 10.3086 29.1797C10.2949 30.5059 8.75 31.2031 6.0293 31.2031C3.26758 31.2031 1.72266 30.5059 1.72266 29.1797C1.72266 27.8945 3.26758 27.1699 6.0293 27.1699ZM6.0293 28.3047C4.16992 28.3047 3.24023 28.5918 3.24023 29.1797C3.24023 29.7812 4.16992 30.0684 6.0293 30.0684C7.86133 30.0684 8.77734 29.7812 8.79102 29.1797C8.77734 28.5918 7.86133 28.3047 6.0293 28.3047ZM23.7754 25.2832V26.4863H12.4824V25.2832H17.3633V24.3672H13.9316V19.1855H22.4219V20.3613H15.4492V21.209H22.1211V22.3301H15.4492V23.2051H22.5176V24.3672H18.8809V25.2832H23.7754ZM18.1289 27.1699C20.8496 27.1699 22.3945 27.8945 22.4082 29.1797C22.3945 30.5059 20.8496 31.2031 18.1289 31.2031C15.3672 31.2031 13.8223 30.5059 13.8223 29.1797C13.8223 27.8945 15.3672 27.1699 18.1289 27.1699ZM18.1289 28.3047C16.2695 28.3047 15.3398 28.5918 15.3398 29.1797C15.3398 29.7812 16.2695 30.0684 18.1289 30.0684C19.9609 30.0684 20.877 29.7812 20.8906 29.1797C20.877 28.5918 19.9609 28.3047 18.1289 28.3047ZM34.2891 18.8574V23.7793H36.1895V25.0371H34.2891V31.2168H32.7852V18.8574H34.2891ZM31.8281 20.7578V21.9746H24.541V20.7578H27.4668V19.0352H28.9844V20.7578H31.8281ZM28.2324 22.7812C30.0098 22.7812 31.3359 23.9844 31.3359 25.6934C31.3359 27.4023 30.0098 28.5918 28.2324 28.5918C26.4277 28.5918 25.1016 27.4023 25.1152 25.6934C25.1016 23.9844 26.4277 22.7812 28.2324 22.7812ZM28.2324 24.0254C27.2617 24.0254 26.5645 24.6816 26.5645 25.6934C26.5645 26.7051 27.2617 27.3477 28.2324 27.334C29.1758 27.3477 29.873 26.7051 29.8867 25.6934C29.873 24.6816 29.1758 24.0254 28.2324 24.0254ZM47.373 18.8574V31.2168H45.9238V18.8574H47.373ZM44.748 19.1582V30.6289H43.3125V24.9414H41.1113C40.3867 26.3633 39.2246 27.5938 37.4746 28.6055L36.6133 27.5254C39.1768 26.0146 40.3457 24.0801 40.5781 21.5918H37.2422V20.3613H42.082C42.082 21.5576 41.9385 22.6787 41.6035 23.7246H43.3125V19.1582H44.748ZM55.9043 22.6172C55.9043 24.5039 56.6836 26.4453 58.4336 27.3613L57.5723 28.4824C56.417 27.8809 55.6445 26.8008 55.207 25.502C54.7695 26.8965 53.9902 28.0928 52.8281 28.7559L51.9531 27.6348C53.6758 26.623 54.4688 24.5723 54.4688 22.6172V22.2754H52.3086V21.0312H54.4688V19.2949H55.9043V21.0312H58.0371V22.2754H55.9043V22.6172ZM62.8496 18.8574V31.2168H61.4004V24.9551H60.1289V30.6152H58.6934V19.0762H60.1289V23.6973H61.4004V18.8574H62.8496ZM74.6621 18.8711V31.2031H73.1172V28.373H70.4922V27.2246H73.1172V18.8711H74.6621ZM64.1758 25.2148C66.5 25.2148 69.5898 25.2012 72.2695 24.832L72.3652 25.9531C71.2305 26.1514 70.0615 26.2676 68.9199 26.3359V30.834H67.3887V26.418C66.3086 26.4521 65.2832 26.459 64.3672 26.459L64.1758 25.2148ZM68.2363 19.4043C70.0547 19.4043 71.3809 20.4297 71.3809 21.9062C71.3809 23.4102 70.0547 24.3945 68.2363 24.3945C66.377 24.3945 65.0645 23.4102 65.0645 21.9062C65.0645 20.4297 66.377 19.4043 68.2363 19.4043ZM68.2363 20.5664C67.1973 20.5664 66.5 21.0996 66.5 21.9062C66.5 22.7402 67.1973 23.2324 68.2363 23.2324C69.2207 23.2324 69.9316 22.7402 69.9316 21.9062C69.9316 21.0996 69.2207 20.5664 68.2363 20.5664ZM87.5957 23.8613V25.0645H82.7012V26.0078H86.1875V29.043H79.1602V29.9453H86.5293V31.1074H77.6699V27.9766H84.6973V27.1426H77.6562V26.0078H81.1973V25.0645H76.3301V23.8613H87.5957ZM86.584 19.2402V20.416H82.9199C83.2549 21.3252 84.7656 22.1113 87.0625 22.2754L86.584 23.4238C84.3691 23.2461 82.6943 22.501 81.9492 21.4004C81.2041 22.4941 79.5498 23.2461 77.3555 23.4238L76.877 22.2754C79.1533 22.1045 80.6504 21.332 80.9922 20.416H77.3555V19.2402H86.584ZM96.9883 20.1973V23.4102H98.4238V19.0762H99.873V30.6152H98.4238V24.6406H96.9883V28.0312H92.1348V20.1973H96.9883ZM93.5566 21.4004V26.8281H95.5664V21.4004H93.5566ZM102.416 18.8574V31.2168H100.953V18.8574H102.416ZM114.133 18.8574V31.2305H112.602V18.8574H114.133ZM107.475 19.7598C109.334 19.7598 110.688 21.4551 110.701 24.1211C110.688 26.8145 109.334 28.4961 107.475 28.4961C105.602 28.4961 104.248 26.8145 104.248 24.1211C104.248 21.4551 105.602 19.7598 107.475 19.7598ZM107.475 21.127C106.422 21.127 105.711 22.2344 105.711 24.1211C105.711 26.0215 106.422 27.1289 107.475 27.1289C108.514 27.1289 109.225 26.0215 109.225 24.1211C109.225 22.2344 108.514 21.127 107.475 21.127ZM126 25.3379V26.541H117.332V19.8281H125.891V21.0586H118.877V22.5488H125.604V23.7383H118.877V25.3379H126ZM127.244 28.4688V29.7129H115.951V28.4688H127.244Z" fill="#919297"/>
<path d="M10.2181 71.2409L20.6153 64.1237C21.2345 63.699 21.7897 63.803 22.2144 64.4221L23.8523 66.8142C24.277 67.4333 24.1705 67.9888 23.5539 68.4133L13.1567 75.5305L14.7097 77.8002L25.9765 69.2994L26.059 69.2436C26.6358 68.8481 27.1511 68.9811 27.5759 69.6003L29.2137 71.9924C29.6942 72.694 29.5453 73.0978 28.9153 73.5914L13.4569 85.2624L13.3745 85.3182C12.7977 85.7137 12.2823 85.5807 11.8576 84.9615L1.18071 69.3683C0.755996 68.7492 0.862485 68.1937 1.47913 67.7692L16.8755 57.7773C17.4946 57.3525 18.0501 57.459 18.4746 58.0757L20.1124 60.4677C20.5372 61.0869 20.4307 61.6424 19.814 62.0668L8.8349 69.2183L10.2181 71.2409Z" fill="#FF732F" stroke="#FF732F" stroke-width="0.75"/>
<path d="M45.6074 74.1523C53.4824 74.1523 60.6074 76.5273 65.7324 81.0273C70.7324 85.5273 73.9824 92.2773 73.9824 100.777C73.9824 109.277 70.7324 116.027 65.7324 120.527C60.6074 125.027 53.4824 127.402 45.6074 127.402C29.8574 127.402 17.2324 117.902 17.2324 100.777C17.2324 83.6523 29.8574 74.1523 45.6074 74.1523ZM45.6074 113.527C52.9824 113.527 58.3574 109.277 58.3574 100.777C58.3574 92.2773 52.9824 87.9023 45.6074 87.9023C38.2324 87.9023 32.8574 92.2773 32.8574 100.777C32.8574 109.277 38.2324 113.527 45.6074 113.527Z" fill="#FF732F"/>
<path d="M44.5133 71.0087L40.6119 72.2658C39.8974 72.4967 39.3957 72.2376 39.1648 71.5231L36.5901 63.5269L28.309 66.1928C27.5945 66.4237 27.0928 66.1646 26.8619 65.4501L25.9725 62.6907C25.7416 61.9761 26.0007 61.4744 26.7153 61.2435L34.9964 58.5776L32.7753 51.6774C32.5444 50.9629 32.8035 50.4612 33.5181 50.2303L37.4194 48.9732C38.134 48.7423 38.6357 49.0014 38.8666 49.7159L45.2561 69.5616C45.487 70.2761 45.2279 70.7778 44.5133 71.0087Z" fill="#FF732F" stroke="#FF732F" stroke-width="0.75"/>
<path d="M49.2195 90.7383L51.5832 92.0188L51.591 92.0227L51.5994 92.028C51.8781 92.1897 52.1524 92.426 52.276 92.7801C52.4043 93.1476 52.3236 93.5038 52.1779 93.7976L52.1405 93.8728L43.8805 109.268L43.8744 109.28L43.8679 109.291C43.7071 109.563 43.4661 109.824 43.1087 109.933C42.7488 110.043 42.3996 109.96 42.1077 109.815L42.029 109.776L39.6653 108.495L39.6575 108.492L39.6491 108.486C39.3704 108.325 39.0961 108.088 38.9725 107.734C38.8442 107.367 38.9249 107.011 39.0706 106.717L39.108 106.642L47.3541 91.2747L47.3589 91.2651L47.365 91.255C47.5278 90.9763 47.7679 90.7048 48.1276 90.5879C48.4946 90.4689 48.8489 90.5544 49.1408 90.6992L49.2195 90.7383Z" fill="#FF732F" stroke="#FF732F" stroke-width="1.25"/>
<path d="M90.1797 91.4414L90.0391 91.6289C90.0469 91.6211 89.9922 91.6797 89.875 91.8047C89.7656 91.9297 89.5898 92.0703 89.3477 92.2266C89.1133 92.3828 88.8164 92.5273 88.457 92.6602C88.0977 92.793 87.6797 92.8594 87.2031 92.8594C86.8438 92.8594 86.5547 92.8242 86.3359 92.7539C86.125 92.6758 86.0078 92.6289 85.9844 92.6133L85.8203 92.543L85.8438 92.3555C85.8438 91.668 85.7734 91 85.6328 90.3516C85.4922 89.7031 85.2578 89.043 84.9297 88.3711L84.9062 88.2422C84.8828 87.6328 84.7852 87.0234 84.6133 86.4141C84.4492 85.7969 84.2109 85.168 83.8984 84.5273C83.8594 84.7461 83.832 84.9609 83.8164 85.1719C83.8086 85.375 83.8047 85.5859 83.8047 85.8047C83.8047 86.0078 83.8086 86.207 83.8164 86.4023C83.832 86.5977 83.8594 86.7969 83.8984 87L83.9219 87.0938L83.875 87.1875C83.2812 88.2734 82.9844 89.4102 82.9844 90.5977C82.9844 90.8164 82.9922 91.0391 83.0078 91.2656C83.0234 91.4922 83.0547 91.7188 83.1016 91.9453L83.125 92.0625L83.0547 92.1562C83.0469 92.1719 83.0078 92.2227 82.9375 92.3086C82.8672 92.3945 82.7539 92.4922 82.5977 92.6016C82.4492 92.7031 82.2539 92.7969 82.0117 92.8828C81.7695 92.9609 81.4766 93 81.1328 93C80.8359 93 80.5703 92.9766 80.3359 92.9297C80.1016 92.8828 79.8906 92.8203 79.7031 92.7422C79.5234 92.6641 79.3633 92.5781 79.2227 92.4844C79.0898 92.3828 78.9766 92.2812 78.8828 92.1797C78.6562 91.9375 78.4961 91.6602 78.4023 91.3477L78.3789 91.2422L78.4258 91.1484C79.1289 89.9922 79.4805 88.6797 79.4805 87.2109C79.4805 87.0938 79.4805 86.9766 79.4805 86.8594C79.4805 86.7344 79.4727 86.6133 79.457 86.4961L79.4805 86.3555C79.7305 85.7695 79.9219 85.1914 80.0547 84.6211C80.1875 84.0508 80.2539 83.4766 80.2539 82.8984C80.2539 82.7031 80.2422 82.5078 80.2188 82.3125C80.1953 82.1094 80.1719 81.9102 80.1484 81.7148L80.125 81.6211L80.1719 81.5273C80.8281 80.4258 81.1562 79.2656 81.1562 78.0469C81.1562 77.7266 81.1328 77.3828 81.0859 77.0156L81.0625 76.8516L81.1797 76.7578C81.1875 76.75 81.2266 76.7188 81.2969 76.6641C81.375 76.6016 81.4844 76.5391 81.625 76.4766C81.7656 76.4141 81.9375 76.3555 82.1406 76.3008C82.3516 76.2461 82.5938 76.2188 82.8672 76.2188C83.3281 76.2188 83.7227 76.2852 84.0508 76.418C84.3789 76.5508 84.6484 76.6992 84.8594 76.8633C85.0703 77.0273 85.2227 77.1797 85.3164 77.3203C85.418 77.4609 85.4727 77.5352 85.4805 77.543L85.5742 77.6836L85.5039 77.8359L85.3633 78.0703C85.5195 78.1094 85.6445 78.1484 85.7383 78.1875C85.8398 78.2188 85.8984 78.2344 85.9141 78.2344L86.0547 78.3398V78.5039C86.0547 79.3008 86.1523 80.0508 86.3477 80.7539C86.543 81.457 86.8477 82.1406 87.2617 82.8047L87.3086 82.9453C87.3086 83.4609 87.3555 83.957 87.4492 84.4336C87.5664 84.043 87.6562 83.6523 87.7188 83.2617C87.7812 82.8711 87.8125 82.4766 87.8125 82.0781C87.8125 81.9844 87.8125 81.8906 87.8125 81.7969C87.8125 81.6953 87.8047 81.5898 87.7891 81.4805L87.7656 81.3867L87.8359 81.293C88.2578 80.6758 88.5703 80.043 88.7734 79.3945C88.9766 78.7383 89.0781 78.043 89.0781 77.3086V76.8516L89.0547 76.6992L89.1719 76.6055C89.1797 76.5977 89.2148 76.5742 89.2773 76.5352C89.3477 76.4883 89.4453 76.4375 89.5703 76.3828C89.6953 76.3281 89.8477 76.2812 90.0273 76.2422C90.207 76.1953 90.4102 76.1719 90.6367 76.1719C91.1445 76.1719 91.5742 76.25 91.9258 76.4062C92.2773 76.5625 92.5625 76.7383 92.7812 76.9336C93.0078 77.1211 93.168 77.2969 93.2617 77.4609C93.3633 77.6172 93.418 77.6992 93.4258 77.707L93.4961 77.8594L93.4023 78L93.2852 78.1641C93.4414 78.2266 93.5586 78.2852 93.6367 78.3398C93.7227 78.3867 93.7734 78.4102 93.7891 78.4102L93.9297 78.5273L93.9062 78.6914C93.8828 78.8867 93.8594 79.082 93.8359 79.2773C93.8203 79.4648 93.8125 79.6562 93.8125 79.8516C93.8125 80.4141 93.875 80.9688 94 81.5156C94.125 82.0625 94.3086 82.5938 94.5508 83.1094L94.5742 83.2852C94.5508 83.4492 94.5352 83.6172 94.5273 83.7891C94.5273 83.9531 94.5273 84.1211 94.5273 84.293C94.5273 85.5039 94.7773 86.6211 95.2773 87.6445L95.3242 87.6914V87.7969C95.3242 87.8672 95.3203 87.9336 95.3125 87.9961C95.3047 88.0586 95.3008 88.125 95.3008 88.1953C95.3008 89.4766 95.6211 90.7031 96.2617 91.875L96.3555 92.0625L96.2031 92.2031C96.2109 92.1953 96.1562 92.2383 96.0391 92.332C95.9297 92.4258 95.7656 92.5312 95.5469 92.6484C95.3359 92.7656 95.0703 92.875 94.75 92.9766C94.4297 93.0703 94.0664 93.1172 93.6602 93.1172C93.418 93.1172 93.1992 93.0938 93.0039 93.0469C92.8086 93.0078 92.6406 92.9648 92.5 92.918C92.3672 92.8633 92.2617 92.8125 92.1836 92.7656C92.1055 92.7188 92.0625 92.6914 92.0547 92.6836L91.9141 92.5898L91.9375 92.4023C91.9766 92.1992 92 91.9961 92.0078 91.793C92.0234 91.582 92.0312 91.375 92.0312 91.1719C92.0312 90.2656 91.8633 89.3242 91.5273 88.3477V88.2188C91.543 88.1094 91.5508 88 91.5508 87.8906C91.5508 87.7734 91.5508 87.6602 91.5508 87.5508C91.5508 86.7227 91.4297 85.8828 91.1875 85.0312C91.1484 85.2344 91.1211 85.4414 91.1055 85.6523C91.0977 85.8555 91.0938 86.0586 91.0938 86.2617C91.0938 86.3945 91.0977 86.5234 91.1055 86.6484C91.1133 86.7656 91.125 86.8906 91.1406 87.0234L91.0938 87.2109C90.3125 88.4141 89.9219 89.7109 89.9219 91.1016C89.9375 91.1406 89.9531 91.1719 89.9688 91.1953C89.9922 91.2188 90.0156 91.2461 90.0391 91.2773L90.1797 91.4414ZM108.648 86.8828C108.695 87.1406 108.719 87.3789 108.719 87.5977C108.719 87.8398 108.695 88.0586 108.648 88.2539C108.602 88.4414 108.547 88.6055 108.484 88.7461C108.43 88.8789 108.375 88.9883 108.32 89.0742C108.273 89.1523 108.246 89.1953 108.238 89.2031L108.145 89.332L107.98 89.3086C107.871 89.293 107.762 89.2852 107.652 89.2852C107.543 89.2852 107.434 89.2852 107.324 89.2852C107.434 89.668 107.57 90.0391 107.734 90.3984C107.898 90.7578 108.082 91.1055 108.285 91.4414L108.414 91.6289L108.262 91.8047C108.254 91.8125 108.211 91.8555 108.133 91.9336C108.062 92.0039 107.953 92.0898 107.805 92.1914C107.656 92.2852 107.465 92.3867 107.23 92.4961C107.004 92.6055 106.734 92.6953 106.422 92.7656C106.273 92.8047 106.125 92.8359 105.977 92.8594C105.836 92.875 105.695 92.8828 105.555 92.8828C105.352 92.8828 105.164 92.8672 104.992 92.8359C104.828 92.8047 104.688 92.7695 104.57 92.7305C104.453 92.6836 104.359 92.6445 104.289 92.6133C104.227 92.582 104.191 92.5664 104.184 92.5664L104.02 92.4727L104.043 92.2852C104.043 92.1836 104.047 92.0859 104.055 91.9922C104.062 91.8984 104.066 91.8008 104.066 91.6992C104.066 91.1602 104.02 90.625 103.926 90.0938C103.895 90.125 103.867 90.1406 103.844 90.1406L103.68 90.1875C103.188 90.1875 102.684 90.2188 102.168 90.2812C101.652 90.3438 101.141 90.457 100.633 90.6211V90.9844C100.633 91.3203 100.656 91.6562 100.703 91.9922L100.727 92.1094L100.656 92.2031C100.648 92.2109 100.609 92.2539 100.539 92.332C100.469 92.4102 100.359 92.4961 100.211 92.5898C100.062 92.6836 99.875 92.7695 99.6484 92.8477C99.4219 92.918 99.1484 92.9531 98.8281 92.9531C98.2031 92.9531 97.707 92.8633 97.3398 92.6836C96.9805 92.5039 96.7031 92.3008 96.5078 92.0742C96.2812 91.8164 96.1289 91.5234 96.0508 91.1953L96.0273 91.1016L96.0977 91.0078C96.4961 90.3984 96.7891 89.75 96.9766 89.0625C97.1719 88.3672 97.2695 87.6172 97.2695 86.8125V86.4023L97.3164 86.2617C97.6211 85.6523 97.8438 85.0469 97.9844 84.4453C98.1328 83.8359 98.207 83.2227 98.207 82.6055C98.207 82.4492 98.2031 82.293 98.1953 82.1367C98.1875 81.9805 98.1758 81.8242 98.1602 81.668L98.1367 81.5508L98.207 81.457C98.957 80.3086 99.332 79.0664 99.332 77.7305C99.332 77.6133 99.3281 77.4922 99.3203 77.3672C99.3125 77.2344 99.3008 77.1016 99.2852 76.9688V76.8281L99.3906 76.7227C99.3984 76.7148 99.4375 76.6875 99.5078 76.6406C99.5859 76.5859 99.6914 76.5312 99.8242 76.4766C99.957 76.4141 100.117 76.3594 100.305 76.3125C100.5 76.2656 100.723 76.2422 100.973 76.2422C101.457 76.2422 101.867 76.3164 102.203 76.4648C102.547 76.6133 102.824 76.7773 103.035 76.957C103.246 77.1367 103.398 77.3008 103.492 77.4492C103.594 77.5977 103.648 77.6758 103.656 77.6836L103.727 77.8359L103.656 77.9766C103.625 78.0078 103.609 78.0312 103.609 78.0469H103.773C104.117 78.0469 104.387 78.0703 104.582 78.1172C104.785 78.1641 104.895 78.1875 104.91 78.1875L105.051 78.293L105.027 78.457C105.012 78.5508 105.004 78.6445 105.004 78.7383C105.004 78.8242 105.004 78.9141 105.004 79.0078C105.004 80.3984 105.332 81.6719 105.988 82.8281L106.035 82.9688V83.2852C106.035 83.6914 106.051 84.082 106.082 84.457C106.113 84.8242 106.176 85.1758 106.27 85.5117C106.426 85.4492 106.578 85.3828 106.727 85.3125C106.875 85.2422 107.02 85.1641 107.16 85.0781L107.277 85.0078L107.43 85.0547C107.438 85.0625 107.488 85.0977 107.582 85.1602C107.684 85.2227 107.797 85.3242 107.922 85.4648C108.055 85.6055 108.188 85.793 108.32 86.0273C108.461 86.2539 108.57 86.5391 108.648 86.8828ZM102.332 83.8828L102.168 83.332C101.988 83.8008 101.855 84.2656 101.77 84.7266C101.684 85.1875 101.641 85.6406 101.641 86.0859V86.4023C101.977 86.2852 102.297 86.1484 102.602 85.9922L102.789 85.9453C102.844 85.9609 102.898 85.9727 102.953 85.9805C103.008 85.9883 103.059 85.9922 103.105 85.9922C103.02 85.6562 102.91 85.3164 102.777 84.9727C102.652 84.6211 102.504 84.2578 102.332 83.8828ZM115.668 87.1641L115.621 87.2695C115.332 88.0664 115.188 88.8242 115.188 89.543C115.188 89.8945 115.219 90.2461 115.281 90.5977C115.352 90.9492 115.453 91.3242 115.586 91.7227L115.645 91.8516L115.586 91.9453C115.578 91.9609 115.535 92.0312 115.457 92.1562C115.379 92.2734 115.25 92.4023 115.07 92.543C114.891 92.6836 114.648 92.8125 114.344 92.9297C114.039 93.0391 113.656 93.0938 113.195 93.0938C112.734 93.0938 112.352 93.0352 112.047 92.918C111.75 92.793 111.516 92.6562 111.344 92.5078C111.172 92.3516 111.051 92.2109 110.98 92.0859C110.91 91.9609 110.871 91.8906 110.863 91.875L110.816 91.7578L110.863 91.6523C111.043 91.2227 111.176 90.8047 111.262 90.3984C111.348 89.9922 111.391 89.5781 111.391 89.1562C111.391 88.8672 111.371 88.5703 111.332 88.2656C111.301 87.9531 111.242 87.6211 111.156 87.2695V87.1172C111.266 86.7188 111.344 86.3438 111.391 85.9922C111.438 85.6406 111.461 85.2969 111.461 84.9609C111.461 84.25 111.34 83.5312 111.098 82.8047L111.051 82.6992L111.098 82.6055C111.27 82.1836 111.391 81.7617 111.461 81.3398C111.539 80.9102 111.586 80.4844 111.602 80.0625H111.484C110.688 80.0625 109.895 80.207 109.105 80.4961L109.012 80.5195L108.895 80.4727C108.879 80.4727 108.809 80.4375 108.684 80.3672C108.559 80.2969 108.418 80.1758 108.262 80.0039C108.113 79.832 107.98 79.6016 107.863 79.3125C107.738 79.0156 107.676 78.6406 107.676 78.1875C107.676 77.7656 107.734 77.4219 107.852 77.1562C107.969 76.8828 108.098 76.668 108.238 76.5117C108.387 76.3477 108.52 76.2344 108.637 76.1719C108.762 76.1016 108.832 76.0625 108.848 76.0547L108.941 76.0078L109.059 76.0547C109.402 76.1797 109.746 76.2695 110.09 76.3242C110.434 76.3711 110.789 76.3945 111.156 76.3945C111.484 76.3945 111.836 76.3828 112.211 76.3594C112.594 76.3281 112.953 76.25 113.289 76.125L113.383 76.0781L113.477 76.125C113.875 76.2578 114.25 76.3555 114.602 76.418C114.961 76.4805 115.316 76.5117 115.668 76.5117C116.301 76.5117 116.996 76.3906 117.754 76.1484L117.895 76.1016L118.012 76.1953C118.02 76.2031 118.07 76.2461 118.164 76.3242C118.258 76.4023 118.355 76.5234 118.457 76.6875C118.566 76.8438 118.664 77.0469 118.75 77.2969C118.844 77.5391 118.895 77.8281 118.902 78.1641C118.902 78.5156 118.859 78.8242 118.773 79.0898C118.688 79.3477 118.59 79.5664 118.48 79.7461C118.379 79.918 118.281 80.0508 118.188 80.1445C118.094 80.2305 118.043 80.2852 118.035 80.3086L117.918 80.4023L117.754 80.3555C117.355 80.2305 116.988 80.1445 116.652 80.0977C116.324 80.043 115.996 80.0156 115.668 80.0156H115.328C115.312 80.125 115.309 80.2305 115.316 80.332C115.324 80.4258 115.328 80.5195 115.328 80.6133C115.328 80.9414 115.348 81.2617 115.387 81.5742C115.434 81.8867 115.5 82.1992 115.586 82.5117V82.6523C115.469 83.0898 115.379 83.4922 115.316 83.8594C115.262 84.2266 115.234 84.5859 115.234 84.9375C115.234 85.2969 115.266 85.6484 115.328 85.9922C115.391 86.3359 115.488 86.6953 115.621 87.0703L115.668 87.1641ZM128.219 84.7148C128.219 85.0664 128.172 85.375 128.078 85.6406C127.984 85.8984 127.879 86.1172 127.762 86.2969C127.645 86.4766 127.535 86.6133 127.434 86.707C127.34 86.8008 127.289 86.8516 127.281 86.8594L127.164 86.9531L127 86.9062C126.562 86.7578 126.176 86.6484 125.84 86.5781C125.512 86.5078 125.184 86.4727 124.855 86.4727C124.613 86.4727 124.375 86.4961 124.141 86.543L124.211 86.6836L124.258 86.7891L124.211 86.8828C124.023 87.4141 123.895 87.9414 123.824 88.4648C123.949 88.4336 124.09 88.4062 124.246 88.3828C124.402 88.3594 124.551 88.3398 124.691 88.3242C124.832 88.3086 124.949 88.2969 125.043 88.2891C125.137 88.2812 125.188 88.2773 125.195 88.2773L125.289 88.2422L125.383 88.3008C125.828 88.4805 126.207 88.6172 126.52 88.7109C126.832 88.8047 127.148 88.8516 127.469 88.8516C127.688 88.8516 127.926 88.8281 128.184 88.7812C128.441 88.7344 128.734 88.668 129.062 88.582L129.203 88.5352L129.32 88.6289C129.328 88.6445 129.371 88.6953 129.449 88.7812C129.535 88.8594 129.625 88.9844 129.719 89.1562C129.812 89.3203 129.898 89.5312 129.977 89.7891C130.055 90.0391 130.094 90.3398 130.094 90.6914C130.086 91.043 130.031 91.3477 129.93 91.6055C129.828 91.8633 129.719 92.082 129.602 92.2617C129.484 92.4336 129.375 92.5664 129.273 92.6602C129.172 92.7539 129.117 92.8047 129.109 92.8125L128.957 92.8828L128.816 92.8359C128.355 92.6641 127.973 92.543 127.668 92.4727C127.363 92.3945 127.066 92.3555 126.777 92.3555C126.574 92.3555 126.363 92.375 126.145 92.4141C125.926 92.4453 125.672 92.4961 125.383 92.5664H125.219C125 92.5273 124.781 92.4844 124.562 92.4375C124.352 92.3828 124.137 92.332 123.918 92.2852C123.84 92.3711 123.738 92.4648 123.613 92.5664C123.496 92.6602 123.348 92.7461 123.168 92.8242C122.996 92.9023 122.793 92.9648 122.559 93.0117C122.332 93.0664 122.074 93.0938 121.785 93.0938C121.324 93.0938 120.941 93.0312 120.637 92.9062C120.34 92.7812 120.102 92.6445 119.922 92.4961C119.75 92.3398 119.629 92.1992 119.559 92.0742C119.488 91.9414 119.453 91.8672 119.453 91.8516L119.406 91.7578L119.453 91.6289C119.633 91.1992 119.766 90.7578 119.852 90.3047C119.938 89.8516 119.98 89.3906 119.98 88.9219C119.98 88.5938 119.961 88.2617 119.922 87.9258C119.891 87.5898 119.832 87.2422 119.746 86.8828V86.7305C119.84 86.3477 119.914 85.9727 119.969 85.6055C120.031 85.2305 120.062 84.8555 120.062 84.4805C120.062 84.0664 120.027 83.6602 119.957 83.2617C119.887 82.8633 119.793 82.4688 119.676 82.0781L119.652 81.9609L119.699 81.8672C119.871 81.4453 119.996 81.0234 120.074 80.6016C120.16 80.1719 120.203 79.7461 120.203 79.3242C120.203 78.9805 120.176 78.6406 120.121 78.3047C120.074 77.9609 119.996 77.6133 119.887 77.2617L119.84 77.1094L119.934 76.9922C119.941 76.9844 119.988 76.9375 120.074 76.8516C120.16 76.7578 120.289 76.6602 120.461 76.5586C120.641 76.4492 120.863 76.3555 121.129 76.2773C121.395 76.1914 121.711 76.1484 122.078 76.1484C122.5 76.1484 122.859 76.207 123.156 76.3242C123.453 76.4414 123.691 76.5664 123.871 76.6992C124.098 76.6758 124.336 76.6406 124.586 76.5938C124.836 76.5469 125.086 76.4805 125.336 76.3945L125.43 76.3477L125.559 76.3711C125.934 76.4883 126.258 76.5781 126.531 76.6406C126.812 76.6953 127.078 76.7227 127.328 76.7227C127.602 76.7227 127.887 76.6875 128.184 76.6172C128.48 76.5469 128.828 76.4414 129.227 76.3008L129.367 76.2422L129.496 76.3242C129.504 76.332 129.555 76.375 129.648 76.4531C129.742 76.5312 129.844 76.6523 129.953 76.8164C130.062 76.9727 130.164 77.1758 130.258 77.4258C130.359 77.668 130.422 77.9648 130.445 78.3164V78.5273C130.445 78.8398 130.406 79.1172 130.328 79.3594C130.25 79.6016 130.16 79.8086 130.059 79.9805C129.965 80.1445 129.875 80.2695 129.789 80.3555C129.711 80.4414 129.668 80.4883 129.66 80.4961L129.543 80.5898L129.367 80.543C128.992 80.457 128.672 80.3945 128.406 80.3555C128.141 80.3086 127.895 80.2852 127.668 80.2852C127.402 80.2852 127.137 80.3164 126.871 80.3789C126.613 80.4336 126.301 80.5195 125.934 80.6367L125.77 80.6602C125.441 80.5977 125.125 80.5508 124.82 80.5195C124.523 80.4883 124.223 80.4727 123.918 80.4727C123.941 80.6914 123.973 80.9102 124.012 81.1289C124.059 81.3398 124.117 81.5547 124.188 81.7734V81.9375C124.141 82.0781 124.102 82.2188 124.07 82.3594C124.047 82.4922 124.023 82.6328 124 82.7812C124.227 82.8438 124.438 82.8867 124.633 82.9102C124.836 82.9336 125.047 82.9453 125.266 82.9453C125.555 82.9453 125.848 82.9219 126.145 82.875C126.441 82.8203 126.766 82.7383 127.117 82.6289L127.258 82.582L127.375 82.6758C127.383 82.6836 127.43 82.7305 127.516 82.8164C127.609 82.8945 127.707 83.0195 127.809 83.1914C127.918 83.3555 128.012 83.5664 128.09 83.8242C128.176 84.0742 128.219 84.3711 128.219 84.7148Z" fill="#FF9765"/>
<path d="M74.799 50.3039L78.3514 50.887C78.9435 50.9841 79.2075 51.3517 79.1103 51.9438L78.7345 54.2332C78.6373 54.8253 78.2697 55.0892 77.6777 54.992L74.1252 54.409L73.3672 59.0272C73.27 59.6193 72.9024 59.8832 72.3104 59.786L69.0737 59.2548C68.4816 59.1576 68.2176 58.79 68.3148 58.1979L70.4592 45.1327C70.5564 44.5407 70.924 44.2767 71.5161 44.3739L74.7527 44.9051C75.3448 45.0023 75.6088 45.3699 75.5116 45.962L74.799 50.3039ZM63.712 47.714L66.4113 56.9532C66.4843 57.2489 66.5309 57.4593 66.505 57.6171C66.4791 57.775 66.4467 57.9724 65.7698 58.145L62.8318 58.7573C62.582 58.7974 62.3782 58.8044 62.2203 58.7785C62.0624 58.7526 61.8521 58.7992 61.6594 57.9974L58.6661 46.8453L52.2651 56.4555C51.8262 57.1536 51.6418 57.0423 51.484 57.0164C51.3261 56.9904 51.1352 56.9186 50.9113 56.8008L48.3232 55.2815C47.737 54.9016 47.7694 54.7042 47.7953 54.5463C47.8212 54.3884 47.9326 54.204 48.0963 53.9472L53.7315 45.7922L50.5867 45.195C49.9947 45.0978 49.7307 44.7302 49.8279 44.1381L50.2036 41.8487C50.3008 41.2567 50.6684 40.9927 51.2605 41.0899L67.4516 44.1932C68.0437 44.2904 68.3077 44.658 68.2105 45.2501L67.8347 47.5395C67.7376 48.1315 67.37 48.3955 66.7779 48.2983L63.712 47.714ZM56.3523 65.8819C56.9872 62.0137 60.7958 59.8013 64.8614 60.4686C68.9271 61.1359 71.8287 64.4496 71.1938 68.3178C70.5589 72.1861 66.7503 74.3984 62.6847 73.7311C58.6191 73.0639 55.7175 69.7502 56.3523 65.8819ZM61.2074 66.6788C60.9806 68.0603 61.7401 69.3605 63.3584 69.6261C64.9768 69.8917 66.112 68.9025 66.3387 67.521C66.5655 66.1395 65.806 64.8393 64.1877 64.5737C62.5693 64.3081 61.4341 65.2973 61.2074 66.6788Z" fill="#FF9765"/>
</svg>
