<svg width="20" height="26" viewBox="0 0 20 26" fill="none" xmlns="http://www.w3.org/2000/svg">
<path d="M10 2.14319C4.477 2.14319 0 6.62019 0 12.1432C0 16.4292 2.857 25.0002 2.857 25.0002H17.143C17.143 25.0002 20 16.4292 20 12.1432C20 6.62019 15.523 2.14319 10 2.14319Z" fill="#C4C4C7"/>
<path d="M17.7336 2.143C17.7336 1.511 17.2216 1 16.5906 1H3.40862C2.77762 1 2.26562 1.511 2.26562 2.143V5.591H17.7326V2.143H17.7336Z" fill="#DDDEDF"/>
<path d="M14.836 3.29419H11.979" stroke="#AAABAF" stroke-width="1.6" stroke-linecap="round" stroke-linejoin="round"/>
<path d="M17.125 13.286H14.268C13.637 13.286 13.125 12.774 13.125 12.143C13.125 11.512 13.637 11 14.268 11H17.125C17.757 11 18.268 11.511 18.268 12.143C18.268 12.775 17.757 13.286 17.125 13.286Z" fill="#AAABAF"/>
<path d="M8.57064 1C9.67685 2.34769 10.7831 3.69538 11.4101 4.48196C12.0372 5.26853 12.1517 5.45315 12.2297 5.57594C12.3077 5.69874 12.3459 5.75413 11.7552 6.30881C11.1645 6.8635 9.94387 7.9158 9.10525 8.68867C7.80779 9.88441 7.31936 10.4724 7.13673 10.6397C7.04221 10.7263 6.97317 10.8439 7.01015 10.901C7.04714 10.958 7.19972 10.958 7.9554 11.4288C8.71108 11.8996 10.0652 12.8411 10.8201 13.3538C11.9632 14.1303 12.5753 14.5183 12.9414 14.7698C13.0716 14.8592 13.0406 14.929 12.2583 16.1021C11.476 17.2752 9.93115 19.5645 9.15438 20.7715C8.3776 21.9785 8.41575 22.0338 8.56891 22.1455C8.72207 22.2571 8.98908 22.4232 9.46994 22.7673C9.9508 23.1113 10.6374 23.6283 11.1342 24.033C11.6309 24.4378 11.917 24.7147 12.154 25" stroke="white" stroke-width="2" stroke-linecap="round"/>
</svg>
