<svg width="20" height="15" viewBox="0 0 20 15" fill="none" xmlns="http://www.w3.org/2000/svg">
<path d="M12.2578 0C14.2383 0 15.8437 1.60548 15.8438 3.58594C15.8438 3.68496 15.838 3.78289 15.8301 3.87988C17.9418 4.63453 19.4531 6.65233 19.4531 9.02344C19.4531 12.0394 17.0082 14.4844 13.9922 14.4844H5.46094C2.44495 14.4844 0 12.0394 0 9.02344C0 6.92846 1.1798 5.10923 2.91113 4.19336C2.87744 3.99589 2.85938 3.79301 2.85938 3.58594C2.85938 1.60548 4.46485 0 6.44531 0C7.64116 0 8.70005 0.58553 9.35156 1.48535C10.0031 0.58553 11.062 0 12.2578 0Z" fill="#FF742F"/>
<path d="M12.2578 0C14.2383 0 15.8437 1.60548 15.8438 3.58594C15.8438 3.68496 15.838 3.78289 15.8301 3.87988C17.9418 4.63453 19.4531 6.65233 19.4531 9.02344C19.4531 12.0394 17.0082 14.4844 13.9922 14.4844H5.46094C2.44495 14.4844 0 12.0394 0 9.02344C0 6.92846 1.1798 5.10923 2.91113 4.19336C2.87744 3.99589 2.85938 3.79301 2.85938 3.58594C2.85938 1.60548 4.46485 0 6.44531 0C7.64116 0 8.70005 0.58553 9.35156 1.48535C10.0031 0.58553 11.062 0 12.2578 0Z" fill="#FF742F"/>
<mask id="mask0_893_365" style="mask-type:alpha" maskUnits="userSpaceOnUse" x="0" y="3" width="20" height="12">
<rect y="3.5625" width="19.4531" height="10.9219" rx="5.46094" fill="#BFFB05"/>
</mask>
<g mask="url(#mask0_893_365)">
<rect y="12.0938" width="19.4531" height="4.59375" fill="#FFFFBB"/>
</g>
<mask id="path-5-inside-1_893_365" fill="white">
<path d="M12.2578 0C14.2383 0 15.8437 1.60548 15.8438 3.58594C15.8438 3.68496 15.838 3.78289 15.8301 3.87988C17.9418 4.63453 19.4531 6.65233 19.4531 9.02344C19.4531 12.0394 17.0082 14.4844 13.9922 14.4844H5.46094C2.44495 14.4844 0 12.0394 0 9.02344C0 6.92846 1.1798 5.10923 2.91113 4.19336C2.87744 3.99589 2.85938 3.79301 2.85938 3.58594C2.85938 1.60548 4.46485 0 6.44531 0C7.64116 0 8.70005 0.58553 9.35156 1.48535C10.0031 0.58553 11.062 0 12.2578 0Z"/>
</mask>
<path d="M15.8438 3.58594L16.8438 3.58594L15.8438 3.58594ZM15.8301 3.87988L14.8334 3.79898L14.7713 4.56346L15.4936 4.82156L15.8301 3.87988ZM5.46094 14.4844L5.46094 15.4844H5.46094V14.4844ZM2.91113 4.19336L3.37873 5.0773L4.01866 4.73878L3.89688 4.02515L2.91113 4.19336ZM2.85938 3.58594H1.85938H2.85938ZM9.35156 1.48535L8.54158 2.07181L9.35156 3.1905L10.1615 2.07181L9.35156 1.48535ZM12.2578 0V1C13.686 1 14.8437 2.15776 14.8438 3.58594L15.8438 3.58594L16.8438 3.58594C16.8437 1.05319 14.7906 -1 12.2578 -1V0ZM15.8438 3.58594H14.8438C14.8438 3.64713 14.8401 3.71536 14.8334 3.79898L15.8301 3.87988L16.8268 3.96079C16.8358 3.85042 16.8438 3.72279 16.8438 3.58594H15.8438ZM15.8301 3.87988L15.4936 4.82156C17.2201 5.43855 18.4531 7.0882 18.4531 9.02344H19.4531H20.4531C20.4531 6.21646 18.6636 3.83051 16.1666 2.9382L15.8301 3.87988ZM19.4531 9.02344H18.4531C18.4531 11.4871 16.4559 13.4844 13.9922 13.4844V14.4844V15.4844C17.5605 15.4844 20.4531 12.5917 20.4531 9.02344H19.4531ZM13.9922 14.4844V13.4844H5.46094V14.4844V15.4844H13.9922V14.4844ZM5.46094 14.4844L5.46094 13.4844C2.99723 13.4844 1 11.4871 1 9.02344H0H-1C-1 12.5917 1.89266 15.4844 5.46094 15.4844L5.46094 14.4844ZM0 9.02344H1C1 7.31356 1.96184 5.82683 3.37873 5.0773L2.91113 4.19336L2.44353 3.30942C0.39777 4.39162 -1 6.54335 -1 9.02344H0ZM2.91113 4.19336L3.89688 4.02515C3.87234 3.88133 3.85938 3.73472 3.85938 3.58594H2.85938H1.85938C1.85938 3.8513 1.88253 4.11046 1.92538 4.36157L2.91113 4.19336ZM2.85938 3.58594L3.85938 3.58594C3.85938 2.15776 5.01714 1 6.44531 1V0V-1C3.91257 -1 1.85938 1.05319 1.85938 3.58594L2.85938 3.58594ZM6.44531 0V1C7.30676 1 8.06995 1.42042 8.54158 2.07181L9.35156 1.48535L10.1615 0.898893C9.33016 -0.24936 7.97556 -1 6.44531 -1V0ZM9.35156 1.48535L10.1615 2.07181C10.6332 1.42042 11.3964 1 12.2578 1V0V-1C10.7276 -1 9.37297 -0.24936 8.54158 0.898893L9.35156 1.48535Z" fill="#202436" mask="url(#path-5-inside-1_893_365)"/>
</svg>
