<svg width="272" height="45" viewBox="0 0 272 45" fill="none" xmlns="http://www.w3.org/2000/svg">
<rect width="272" height="45" rx="6" fill="#FEE500"/>
<g clip-path="url(#clip0_601_3463)">
<path fill-rule="evenodd" clip-rule="evenodd" d="M26 14.1001C21.0292 14.1001 17 17.2131 17 21.0524C17 23.4401 18.5584 25.5451 20.9315 26.7971L19.933 30.4446C19.8448 30.7669 20.2134 31.0238 20.4965 30.837L24.8733 27.9483C25.2427 27.9839 25.6181 28.0047 26 28.0047C30.9705 28.0047 34.9999 24.8919 34.9999 21.0524C34.9999 17.2131 30.9705 14.1001 26 14.1001Z" fill="black"/>
</g>
<path d="M113.836 17.0742C113.836 20.8066 112.811 24.0059 108.258 26.2754L107.424 25.127C109.563 24.0674 110.835 22.8369 111.553 21.3672L107.711 21.7363L107.52 20.4238L112.018 20.1367C112.175 19.5625 112.271 18.9541 112.318 18.3047H108.162V17.0742H113.836ZM117.09 15.8574V20.6973H118.922V21.9414H117.09V28.1895H115.572V15.8574H117.09ZM125.936 17.0742C125.936 20.8066 124.91 24.0059 120.357 26.2754L119.523 25.127C121.663 24.0674 122.935 22.8369 123.652 21.3672L119.811 21.7363L119.619 20.4238L124.117 20.1367C124.274 19.5625 124.37 18.9541 124.418 18.3047H120.262V17.0742H125.936ZM129.189 15.8574V20.6973H131.021V21.9414H129.189V28.1895H127.672V15.8574H129.189ZM137.229 16.5547C139.881 16.5547 141.836 17.8809 141.836 19.8906C141.836 21.7432 140.243 22.9805 137.98 23.1992V25.4688H142.902V26.7129H131.609V25.4688H136.477V23.1992C134.228 22.9805 132.635 21.7432 132.648 19.8906C132.635 17.8809 134.59 16.5547 137.229 16.5547ZM137.229 17.7852C135.424 17.7715 134.125 18.5918 134.139 19.8906C134.125 21.2305 135.424 22.0234 137.229 22.0234C139.061 22.0234 140.346 21.2305 140.346 19.8906C140.346 18.5918 139.061 17.7715 137.229 17.7852ZM158.324 25.5234V26.7812H147.031V25.5234H151.898V23.5137H148.371V19.4668H155.48V17.9355H148.344V16.7051H156.984V20.6699H149.889V22.2695H157.271V23.5137H153.402V25.5234H158.324ZM168.961 17.0605V18.4551C168.961 20.1094 168.961 21.8184 168.51 24.416L166.965 24.2793C167.443 21.8457 167.443 20.0547 167.443 18.4551V18.291H160.32V17.0605H168.961ZM170.396 25.2773V26.5215H159.131V25.2773H170.396ZM181.525 15.8711V24.7988H179.994V15.8711H181.525ZM181.867 26.7402V27.9707H173.35V23.8965H174.881V26.7402H181.867ZM174.785 16.6777C176.658 16.6777 178.107 17.9766 178.107 19.7676C178.107 21.5996 176.658 22.8711 174.785 22.8711C172.898 22.8711 171.449 21.5996 171.449 19.7676C171.449 17.9766 172.898 16.6777 174.785 16.6777ZM174.785 18.0039C173.732 18.0039 172.926 18.7012 172.939 19.7676C172.926 20.8613 173.732 21.5449 174.785 21.5449C175.811 21.5449 176.617 20.8613 176.617 19.7676C176.617 18.7012 175.811 18.0039 174.785 18.0039Z" fill="black" fill-opacity="0.85"/>
<defs>
<clipPath id="clip0_601_3463">
<rect width="17.9999" height="18" fill="white" transform="translate(17 13.5)"/>
</clipPath>
</defs>
</svg>
